<svg width="0" height="0" class="hidden">
  <symbol fill="#000000" version="1.1" xmlns="http://www.w3.org/2000/svg" viewBox="0 0 32 32" id="school">
    <title>school</title>
    <path d="M30 20.75h-5.75v-7.596l5.129 2.931c0.178 0.104 0.393 0.165 0.621 0.165 0.69 0 1.25-0.56 1.25-1.25 0-0.462-0.251-0.865-0.623-1.082l-0.006-0.003-12.932-7.389c0.373-0.014 0.728-0.064 1.070-0.148l-0.036 0.007c0.291-0.057 0.626-0.089 0.969-0.089 0.363 0 0.717 0.036 1.059 0.106l-0.034-0.006c0.061 0.011 0.131 0.017 0.203 0.017 0.69 0 1.25-0.56 1.25-1.25v0-2.812c0-0 0-0 0-0 0-0.592-0.412-1.088-0.964-1.217l-0.008-0.002c-0.453-0.117-0.973-0.185-1.509-0.185-0.541 0-1.067 0.069-1.568 0.198l0.043-0.010c-0.254 0.059-0.546 0.093-0.845 0.093-0.13 0-0.259-0.006-0.386-0.019l0.016 0.001c-0.225-0.28-0.566-0.459-0.948-0.463h-0.001c-0.69 0-1.25 0.56-1.25 1.25v0 4.275l-13.37 7.64c-0.379 0.219-0.63 0.623-0.63 1.085 0 0.69 0.56 1.25 1.25 1.25 0.228 0 0.442-0.061 0.626-0.168l-0.006 0.003 5.13-2.931v7.596h-5.75c-0.69 0-1.25 0.56-1.25 1.25v8c0 0.69 0.56 1.25 1.25 1.25h28c0.69-0.001 1.249-0.56 1.25-1.25v-8c-0.001-0.69-0.56-1.249-1.25-1.25h-0zM18.791 3.557c0.246-0.069 0.528-0.109 0.819-0.109 0.021 0 0.042 0 0.063 0.001l-0.003-0v0.352c-0.555 0.010-1.090 0.068-1.608 0.171l0.058-0.009c-0.258 0.076-0.554 0.119-0.86 0.119-0.001 0-0.002 0-0.003 0h-0.007v-0.336c0.547-0 1.078-0.069 1.586-0.197l-0.045 0.010zM3.25 23.25h4.5v5.5h-4.5zM10.25 22v-10.275l5.75-3.286 5.75 3.286v17.025h-1.5v-4.75c-0.001-0.69-0.56-1.249-1.25-1.25h-6c-0.69 0-1.25 0.56-1.25 1.25v4.75h-1.5zM14.25 28.75v-3.5h3.5v3.5zM28.75 28.75h-4.5v-5.5h4.5zM16 20.25c2.347 0 4.25-1.903 4.25-4.25s-1.903-4.25-4.25-4.25c-2.347 0-4.25 1.903-4.25 4.25v0c0.002 2.346 1.904 4.247 4.25 4.25h0zM16 14.25c0.966 0 1.75 0.784 1.75 1.75s-0.784 1.75-1.75 1.75c-0.966 0-1.75-0.784-1.75-1.75v0c0.001-0.966 0.784-1.749 1.75-1.75h0z"></path>
  </symbol>
  <symbol version="1.1" xmlns="http://www.w3.org/2000/svg" xmlns:xlink="http://www.w3.org/1999/xlink" xmlnsSketch="http://www.bohemiancoding.com/sketch/ns" viewBox="-1 0 32 32" id="svgrepo">
    <title>calendar</title>
    <desc>Created with Sketch Beta.</desc>
    <defs></defs>
    <g id="Page-1" stroke="none" stroke-width="1" fill="none" fill-rule="evenodd" sketchType="MSPage">
      <g id="Icon-Set" sketchType="MSLayerGroup" transform="translate(-309.000000, -359.000000)" fill="#000000">
        <path d="M323,383 L325,383 L325,385 L323,385 L323,383 Z M323,387 L325,387 C326.104,387 327,386.104 327,385 L327,383 C327,381.896 326.104,381 325,381 L323,381 C321.896,381 321,381.896 321,383 L321,385 C321,386.104 321.896,387 323,387 L323,387 Z M315,383 L317,383 L317,385 L315,385 L315,383 Z M315,387 L317,387 C318.104,387 319,386.104 319,385 L319,383 C319,381.896 318.104,381 317,381 L315,381 C313.896,381 313,381.896 313,383 L313,385 C313,386.104 313.896,387 315,387 L315,387 Z M323,375 L325,375 L325,377 L323,377 L323,375 Z M323,379 L325,379 C326.104,379 327,378.104 327,377 L327,375 C327,373.896 326.104,373 325,373 L323,373 C321.896,373 321,373.896 321,375 L321,377 C321,378.104 321.896,379 323,379 L323,379 Z M315,375 L317,375 L317,377 L315,377 L315,375 Z M315,379 L317,379 C318.104,379 319,378.104 319,377 L319,375 C319,373.896 318.104,373 317,373 L315,373 C313.896,373 313,373.896 313,375 L313,377 C313,378.104 313.896,379 315,379 L315,379 Z M337,367 L311,367 L311,365 C311,363.896 311.896,363 313,363 L317,363 L317,364 C317,364.553 317.447,365 318,365 C318.553,365 319,364.553 319,364 L319,363 L329,363 L329,364 C329,364.553 329.447,365 330,365 C330.553,365 331,364.553 331,364 L331,363 L335,363 C336.104,363 337,363.896 337,365 L337,367 L337,367 Z M337,387 C337,388.104 336.104,389 335,389 L313,389 C311.896,389 311,388.104 311,387 L311,369 L337,369 L337,387 L337,387 Z M335,361 L331,361 L331,360 C331,359.448 330.553,359 330,359 C329.447,359 329,359.448 329,360 L329,361 L319,361 L319,360 C319,359.448 318.553,359 318,359 C317.447,359 317,359.448 317,360 L317,361 L313,361 C310.791,361 309,362.791 309,365 L309,387 C309,389.209 310.791,391 313,391 L335,391 C337.209,391 339,389.209 339,387 L339,365 C339,362.791 337.209,361 335,361 L335,361 Z M331,375 L333,375 L333,377 L331,377 L331,375 Z M331,379 L333,379 C334.104,379 335,378.104 335,377 L335,375 C335,373.896 334.104,373 333,373 L331,373 C329.896,373 329,373.896 329,375 L329,377 C329,378.104 329.896,379 331,379 L331,379 Z M331,383 L333,383 L333,385 L331,385 L331,383 Z M331,387 L333,387 C334.104,387 335,386.104 335,385 L335,383 C335,381.896 334.104,381 333,381 L331,381 C329.896,381 329,381.896 329,383 L329,385 C329,386.104 329.896,387 331,387 L331,387 Z" id="calendar" sketchType="MSShapeGroup"></path>
      </g>
    </g>
  </symbol>
  <symbol fill="none" xmlns="http://www.w3.org/2000/svg" viewBox="0 0 24 24" id="time">
    <path fill-rule="evenodd" clip-rule="evenodd" d="M7 1C6.44772 1 6 1.44772 6 2V3H5C3.34315 3 2 4.34315 2 6V20C2 21.6569 3.34315 23 5 23H13.101C12.5151 22.4259 12.0297 21.7496 11.6736 21H5C4.44772 21 4 20.5523 4 20V11H20V11.2899C20.7224 11.5049 21.396 11.8334 22 12.2547V6C22 4.34315 20.6569 3 19 3H18V2C18 1.44772 17.5523 1 17 1C16.4477 1 16 1.44772 16 2V3H8V2C8 1.44772 7.55228 1 7 1ZM16 6V5H8V6C8 6.55228 7.55228 7 7 7C6.44772 7 6 6.55228 6 6V5H5C4.44772 5 4 5.44772 4 6V9H20V6C20 5.44772 19.5523 5 19 5H18V6C18 6.55228 17.5523 7 17 7C16.4477 7 16 6.55228 16 6Z" fill="#0F0F0F"></path>
    <path d="M17 16C17 15.4477 17.4477 15 18 15C18.5523 15 19 15.4477 19 16V17.703L19.8801 18.583C20.2706 18.9736 20.2706 19.6067 19.8801 19.9973C19.4896 20.3878 18.8564 20.3878 18.4659 19.9973L17.2929 18.8243C17.0828 18.6142 16.9857 18.3338 17.0017 18.0588C17.0006 18.0393 17 18.0197 17 18V16Z" fill="#0F0F0F"></path>
    <path fill-rule="evenodd" clip-rule="evenodd" d="M24 18C24 21.3137 21.3137 24 18 24C14.6863 24 12 21.3137 12 18C12 14.6863 14.6863 12 18 12C21.3137 12 24 14.6863 24 18ZM13.9819 18C13.9819 20.2191 15.7809 22.0181 18 22.0181C20.2191 22.0181 22.0181 20.2191 22.0181 18C22.0181 15.7809 20.2191 13.9819 18 13.9819C15.7809 13.9819 13.9819 15.7809 13.9819 18Z" fill="#0F0F0F"></path>
  </symbol>
  <symbol fill="#000000" version="1.1" id="translation" xmlns="http://www.w3.org/2000/svg" xmlns:xlink="http://www.w3.org/1999/xlink" xml:space="preserve" viewBox="0 0 512 512">
    <g>
      <g>
        <g>
          <path d="M209.438,335.531c9.942,18.195,21.917,30.141,34.567,34.776V248.965h-56.402
				C189.09,281.829,196.698,312.217,209.438,335.531z"></path>
          <path d="M267.818,248.965L267.818,248.965v121.342c12.65-4.635,24.626-16.581,34.567-34.776
				c12.738-23.315,20.348-53.703,21.834-86.566H267.818z"></path>
          <path d="M209.438,138.588c-12.738,23.313-20.348,53.702-21.835,86.565h56.402V103.811
				C231.354,108.446,219.38,120.392,209.438,138.588z"></path>
          <path d="M316.566,116.001c17.952,26.61,29.701,65.143,31.505,109.152h42.737C386.624,177.352,357.507,136.596,316.566,116.001z"></path>
          <path d="M302.385,138.588c-9.943-18.196-21.917-30.142-34.567-34.777v121.341h56.401
				C322.732,192.289,315.123,161.901,302.385,138.588z"></path>
          <path d="M316.566,358.119c40.939-20.595,70.058-61.352,74.242-109.153h-42.737C346.267,292.974,334.518,331.508,316.566,358.119z
				"></path>
          <path d="M449.513,373.904C559.353,219.207,449.691,0,255.911,0C125.196,0,18.851,106.344,18.851,237.059
				c0,172.145,177.565,285.705,332.799,216.925l110.132,56.039c14.048,7.143,30.037-6.229,25.08-21.449L449.513,373.904z
				 M255.911,396.297c-87.805,0-159.239-71.433-159.239-159.239c0-87.805,71.435-159.239,159.239-159.239
				S415.15,149.253,415.15,237.058C415.15,324.864,343.716,396.297,255.911,396.297z"></path>
          <path d="M121.013,248.965L121.013,248.965c4.184,47.801,33.303,88.557,74.242,109.153
				c-17.952-26.61-29.701-65.145-31.505-109.153H121.013z"></path>
          <path d="M195.257,116.001c-40.941,20.595-70.058,61.351-74.242,109.152h42.737C165.555,181.144,177.303,142.611,195.257,116.001z
				"></path>
        </g>
      </g>
    </g>
  </symbol>
  <symbol version="1.1" id="classroom" xmlns="http://www.w3.org/2000/svg" xmlns:xlink="http://www.w3.org/1999/xlink" xml:space="preserve" viewBox="0 0 392.598 392.598">
    <path d="M359.855,142.481H32.743c-6.012,0-10.925,4.848-10.925,10.925v206.416
	c0,6.012,4.848,10.925,10.925,10.925h327.111c6.012,0,10.925-4.849,10.925-10.925V153.406
	C370.78,147.329,365.867,142.481,359.855,142.481z"></path>
    <rect x="43.604" y="164.267" width="305.325" height="184.63"></rect>
    <g>
      <path d="M150.271,270.158c-18.166,0.711-31.612,13.123-31.612,30.901c0,18.101,14.739,31.289,31.612,30.901
		c18.166-0.711,31.612-13.123,31.612-30.901C181.947,282.958,167.143,269.705,150.271,270.158z M168.113,300.994
		c-0.711,11.442-7.822,18.941-17.842,19.265c-8.792,0.259-18.101-8.339-17.842-19.265h0.065
		c0.711-11.442,7.822-18.941,17.842-19.265c8.792-0.259,18.101,8.339,17.842,19.265H168.113z"></path>
      <path d="M221.382,270.158c-18.166,0.711-31.612,13.123-31.612,30.901c0,18.101,14.739,31.289,31.612,30.901
		c18.166-0.711,31.612-13.123,31.612-30.901C253.123,282.958,238.319,269.705,221.382,270.158z M239.289,300.994
		c-0.711,11.442-7.822,18.941-17.842,19.265c-8.792,0.259-18.101-8.339-17.842-19.265h0.065
		c0.711-11.442,7.822-18.941,17.842-19.265c8.792-0.259,18.101,8.339,17.842,19.265H239.289z"></path>
      <path d="M108.832,291.297c-0.517-15.321-8.404-20.04-26.053-19.846H59.96v59.798h13.446v-19.071h9.244
		l13.382,19.071h16.549L97.39,309.915C105.018,307.135,108.832,300.865,108.832,291.297z M83.232,300.671h-9.826v-17.713h10.149
		c6.788,0.129,11.636,0.905,11.636,8.404C95.063,298.731,91.507,300.606,83.232,300.671z"></path>
      <polygon points="298.117,304.356 282.602,271.451 264.436,271.451 264.436,331.313 277.883,331.313 
		277.883,293.624 294.109,326.335 302.061,326.335 318.416,293.624 318.416,331.313 331.863,331.313 331.863,271.451 
		313.762,271.451 	"></polygon>
    </g>
    <path d="M196.299,43.636c6.012,0,10.925-4.848,10.925-10.925c0-6.012-4.848-10.925-10.925-10.925
	s-10.925,4.848-10.925,10.925S190.287,43.636,196.299,43.636z"></path>
    <g>
      <path d="M359.855,120.695H324.17l-95.289-90.182C227.717,13.511,213.56,0,196.299,0
		c-17.778,0-32.323,14.287-32.711,32l-95.095,88.695h-35.75c-18.036,0-32.711,14.675-32.711,32.711v206.416
		c0,18.101,14.675,32.776,32.711,32.776h327.111c18.036,0,32.711-14.675,32.711-32.711V153.406
		C392.566,135.37,377.891,120.695,359.855,120.695z M370.78,359.822c0,6.012-4.848,10.925-10.925,10.925H32.743
		c-6.012,0-10.925-4.849-10.925-10.925V153.406c0-6.012,4.848-10.925,10.925-10.925h327.111c6.012,0,10.925,4.848,10.925,10.925
		V359.822L370.78,359.822z M196.299,21.786c6.012,0,10.925,4.848,10.925,10.925s-4.848,10.925-10.925,10.925
		s-10.925-4.848-10.925-10.925S190.287,21.786,196.299,21.786z M171.733,54.238c6.012,6.853,14.739,11.184,24.566,11.184
		c10.15,0,19.265-4.655,25.212-11.895l70.853,67.168H100.493L171.733,54.238z"></path>
      <path d="M89.244,193.422c6.335,0,11.636,2.65,15.903,7.952l8.404-9.503
		c-6.723-7.564-14.998-11.378-24.889-11.378c-16.097-0.065-31.741,12.347-31.741,31.418c0,17.261,13.382,31.095,32,31.095
		c9.244,0,17.39-3.879,24.242-11.572l-8.663-8.857c-4.202,5.236-9.632,7.887-16.226,7.887c-11.119-0.453-17.778-9.115-17.455-18.618
		C70.562,201.891,78.707,193.034,89.244,193.422z"></path>
      <polygon points="163.071,230.335 137.341,230.335 137.341,181.915 123.83,181.915 123.83,242.295 
		163.071,242.295 	"></polygon>
      <path d="M215.952,242.295h14.352l-26.117-60.444h-13.059l-26.117,60.444h14.352l5.624-13.059h25.341
		L215.952,242.295z M190.093,217.471l7.564-17.519l7.499,17.519H190.093z"></path>
      <path d="M317.511,205.899c-7.046-1.939-13.123-3.038-13.382-7.887c0.129-3.879,3.426-6.465,7.24-5.883
		c5.56,0,10.99,2.004,16.226,5.947l6.788-9.891c-6.012-5.172-14.739-8.21-22.626-7.952c-11.572,0-21.721,5.818-21.527,18.036
		c-0.065,13.899,9.18,15.58,20.299,19.135c6.077,1.616,11.83,3.491,11.119,7.564c-0.646,4.655-3.685,6.012-7.952,5.947
		c-5.56,0-11.507-2.844-18.101-8.598l-8.016,9.891c7.628,7.111,16.226,10.667,25.794,10.667
		c12.347,0.711,22.562-7.628,22.109-18.295C336,214.756,329.535,208.679,317.511,205.899z"></path>
      <path d="M280.533,224.711c0.388-9.956-6.077-15.968-18.101-18.747c-7.046-1.939-13.123-3.038-13.382-7.887
		c0.129-3.879,3.426-6.465,7.24-5.883c5.56,0,10.99,2.004,16.226,5.947l6.788-9.891c-6.012-5.172-14.739-8.21-22.626-7.952
		c-11.572,0-21.721,5.818-21.527,18.036c-0.065,13.899,9.18,15.58,20.299,19.135c6.077,1.616,11.83,3.491,11.119,7.564
		c-0.646,4.655-3.685,6.012-7.952,5.947c-5.56,0-11.507-2.844-18.101-8.598l-8.016,9.891c7.628,7.111,16.226,10.667,25.794,10.667
		C270.707,243.717,280.921,235.378,280.533,224.711z"></path>
    </g>
  </symbol>
  <symbol fill="none" xmlns="http://www.w3.org/2000/svg" viewBox="0 0 24 24" id="english">
    <path d="M20 15H19M14 15H19M17 13.5V15M4.85714 8H9.14286M4 11L5.53848 5.61531C5.97492 4.08777 6.19315 3.324 6.53044 3.13222C6.82159 2.96667 7.17841 2.96667 7.46956 3.13222C7.80685 3.324 8.02508 4.08777 8.46152 5.61531L10 11M14 20.9776C16.8033 20.725 19 18.369 19 15.5V15M20 20.9776C18.0763 20.8043 16.4382 19.6404 15.5996 18M14 7C14.9319 7 15.3978 7 15.7654 7.15225C16.2554 7.35523 16.6448 7.74458 16.8478 8.23464C17 8.60218 17 9.06812 17 10M7 15C7 15.9319 7 16.3978 7.15224 16.7654C7.35523 17.2554 7.74458 17.6448 8.23463 17.8478C8.60218 18 9.06812 18 10 18" stroke="#000000" stroke-width="2" stroke-linecap="round" stroke-linejoin="round"></path>
  </symbol>
  <symbol fill="#000000" version="1.1" xmlns="http://www.w3.org/2000/svg" viewBox="0 0 32 32" id="health">
    <title>health</title>
    <path d="M27 28.031h-2v1.938h-4v-1.938h-11v1.938h-4v-1.938h-2c-1.105 0-2-0.896-2-2v-17c0-1.105 0.895-2 2-2h23c1.104 0 2 0.896 2 2v17c0 1.105-0.896 2-2 2zM20.999 16.031h-3.999v-4h-3v4h-4v3h4v4h3v-4h3.999v-3zM19 4.010h-6v2.021h-2v-0.979h1v-3.021h7.958v3h1.042v1h-2v-2.021z"></path>
  </symbol>
  <symbol version="1.1" id="meal" xmlns="http://www.w3.org/2000/svg" xmlns:xlink="http://www.w3.org/1999/xlink" xml:space="preserve" viewBox="0 0 512 512">
    <g>
      <path d="M199.259,2.124c-10.736,0-17.97,8.514-17.97,19.002v90.51c0,10.292-5.288,15.216-13.403,15.216
		c-7.412,0-11.785-6.115-11.785-13.376l-0.408-94.021C155.693,7.59,145.348,0,135.731,0c-9.607,0-19.961,7.59-19.961,19.455v94.021
		c0,7.261-4.782,13.376-12.194,13.376c-8.105,0-13.402-4.924-13.402-15.216v-90.51c0-10.488-7.226-19.002-17.953-19.002
		c-10.744,0.018-16.46,9.261-17.633,18.326c-1.155,9.074-7.119,73.873-7.768,115.288c-0.666,41.425,28.414,65.652,44.98,73.349
		c11.332,5.261,19.526,16.575,19.526,30.182v34.288h48.81v-34.288c0-13.607,8.194-24.921,19.526-30.182
		c16.575-7.696,45.655-31.924,44.997-73.349c-0.657-41.415-6.612-106.214-7.785-115.288C215.701,11.385,209.995,2.142,199.259,2.124
		z"></path>
      <path d="M332.341,209.087c13.384,11.838,19.526,16.575,19.526,30.182v34.288h48.818v-34.288
		c0-13.607,6.132-18.344,19.518-30.182c13.687-12.096,44.988-45.726,44.988-87.151c0-72.317-45.771-118.354-88.919-118.354
		c-43.149,0-88.92,46.037-88.92,118.354C287.352,163.361,318.653,196.991,332.341,209.087z"></path>
      <path d="M177.831,287.44H93.649c-10.682,0-19.339,8.657-19.339,19.339s8.657,19.339,19.339,19.339h84.182
		c10.683,0,19.339-8.657,19.339-19.339S188.514,287.44,177.831,287.44z"></path>
      <path d="M94.786,471.046c0,22.618,18.336,40.954,40.954,40.954c22.619,0,40.954-18.335,40.954-40.954V339.769H94.786
		V471.046z"></path>
      <path d="M418.363,287.44H334.18c-10.683,0-19.339,8.657-19.339,19.339s8.656,19.339,19.339,19.339h84.182
		c10.682,0,19.339-8.657,19.339-19.339S429.045,287.44,418.363,287.44z"></path>
      <path d="M335.318,471.046c0,22.618,18.335,40.954,40.954,40.954c22.619,0,40.954-18.335,40.954-40.954V339.769h-81.907
		V471.046z"></path>
    </g>
  </symbol>
  <symbol version="1.1" xmlns="http://www.w3.org/2000/svg" xmlns:xlink="http://www.w3.org/1999/xlink" viewBox="0 0 24 24" id="safety">
    <title>safety_certificate_line</title>
    <g id="页面-1" stroke="none" stroke-width="1" fill="none" fill-rule="evenodd">
      <g id="System" transform="translate(-430.000000, -192.000000)" fill-rule="nonzero">
        <g id="safety_certificate_line" transform="translate(430.000000, 192.000000)">
          <path d="M24,0 L24,24 L0,24 L0,0 L24,0 Z M12.5934901,23.257841 L12.5819402,23.2595131 L12.5108777,23.2950439 L12.4918791,23.2987469 L12.4918791,23.2987469 L12.4767152,23.2950439 L12.4056548,23.2595131 C12.3958229,23.2563662 12.3870493,23.2590235 12.3821421,23.2649074 L12.3780323,23.275831 L12.360941,23.7031097 L12.3658947,23.7234994 L12.3769048,23.7357139 L12.4804777,23.8096931 L12.4953491,23.8136134 L12.4953491,23.8136134 L12.5071152,23.8096931 L12.6106902,23.7357139 L12.6232938,23.7196733 L12.6232938,23.7196733 L12.6266527,23.7031097 L12.609561,23.275831 C12.6075724,23.2657013 12.6010112,23.2592993 12.5934901,23.257841 L12.5934901,23.257841 Z M12.8583906,23.1452862 L12.8445485,23.1473072 L12.6598443,23.2396597 L12.6498822,23.2499052 L12.6498822,23.2499052 L12.6471943,23.2611114 L12.6650943,23.6906389 L12.6699349,23.7034178 L12.6699349,23.7034178 L12.678386,23.7104931 L12.8793402,23.8032389 C12.8914285,23.8068999 12.9022333,23.8029875 12.9078286,23.7952264 L12.9118235,23.7811639 L12.8776777,23.1665331 C12.8752882,23.1545897 12.8674102,23.1470016 12.8583906,23.1452862 L12.8583906,23.1452862 Z M12.1430473,23.1473072 C12.1332178,23.1423925 12.1221763,23.1452606 12.1156365,23.1525954 L12.1099173,23.1665331 L12.0757714,23.7811639 C12.0751323,23.7926639 12.0828099,23.8018602 12.0926481,23.8045676 L12.108256,23.8032389 L12.3092106,23.7104931 L12.3186497,23.7024347 L12.3186497,23.7024347 L12.3225043,23.6906389 L12.340401,23.2611114 L12.337245,23.2485176 L12.337245,23.2485176 L12.3277531,23.2396597 L12.1430473,23.1473072 Z" id="MingCute" fill-rule="nonzero"></path>
          <path d="M11.2978,2.19533 C11.6939125,2.0467725 12.1254734,2.02820281 12.530448,2.13962094 L12.7022,2.19533 L19.7022,4.82033 C20.4308533,5.09354467 20.9298818,5.76181693 20.9931804,6.52752646 L21,6.69299 L21,12.0557 C21,15.3644353 19.185628,18.397435 16.2910032,19.9669788 L16.0249,20.1056 L12.6708,21.7826 C12.2954222,21.9703333 11.8610222,21.9911926 11.4725284,21.8451778 L11.3292,21.7826 L7.97508,20.1056 C5.01569824,18.6258412 3.11426678,15.6466349 3.00497789,12.3557015 L3,12.0557 L3,6.69299 C3,5.91487933 3.45049511,5.21294733 4.14521784,4.88481434 L4.29775,4.82033 L11.2978,2.19533 Z M12,4.06799 L5,6.69299 L5,12.0557 C5,14.61872 6.39981647,16.9691539 8.63528667,18.1940401 L8.8695,18.3167 L12,19.882 L15.1305,18.3167 C17.42295,17.1705233 18.8991628,14.8673176 18.9950298,12.3200442 L19,12.0557 L19,6.69299 L12,4.06799 Z M15.4329,8.62909 C15.8235,8.23856 16.4566,8.23856 16.8471,8.62909 C17.2076538,8.98957 17.2353888,9.55680503 16.9303047,9.9490935 L16.8471,10.0433 L11.6127,15.2778 C11.2137857,15.6767143 10.5847383,15.7052082 10.1529478,15.3632816 L10.057,15.2778 L7.65285,12.8736 C7.26233,12.4831 7.26233,11.8499 7.65285,11.4594 C8.01333923,11.0989385 8.58056645,11.0712107 8.97286152,11.3762166 L9.06707,11.4594 L10.8348,13.2272 L15.4329,8.62909 Z" id="形状" fill="#09244B"></path>
        </g>
      </g>
    </g>
  </symbol>
</svg>