<svg width="0" height="0" class="hidden">
  <symbol fill="#000000" version="1.1" id="time" xmlns="http://www.w3.org/2000/svg" xmlns:xlink="http://www.w3.org/1999/xlink" xml:space="preserve" viewBox="0 0 60 60">
    <path d="M30,0.061c-16.542,0-30,13.458-30,30s13.458,29.879,30,29.879s30-13.337,30-29.879S46.542,0.061,30,0.061z M32,30.939
	c0,1.104-0.896,2-2,2H14c-1.104,0-2-0.896-2-2s0.896-2,2-2h14v-22c0-1.104,0.896-2,2-2s2,0.896,2,2V30.939z"></path>
  </symbol>
  <symbol version="1.1" id="email" xmlns="http://www.w3.org/2000/svg" xmlns:xlink="http://www.w3.org/1999/xlink" xml:space="preserve" viewBox="0 0 512 512">
    <g>
      <path d="M440.917,67.925H71.083C31.827,67.925,0,99.752,0,139.008v233.984c0,39.256,31.827,71.083,71.083,71.083
		h369.834c39.255,0,71.083-31.827,71.083-71.083V139.008C512,99.752,480.172,67.925,440.917,67.925z M178.166,321.72l-99.54,84.92
		c-7.021,5.992-17.576,5.159-23.567-1.869c-5.992-7.021-5.159-17.576,1.87-23.567l99.54-84.92c7.02-5.992,17.574-5.159,23.566,1.87
		C186.027,305.174,185.194,315.729,178.166,321.72z M256,289.436c-13.314-0.033-26.22-4.457-36.31-13.183l0.008,0.008l-0.032-0.024
		c0.008,0.008,0.017,0.008,0.024,0.016L66.962,143.694c-6.98-6.058-7.723-16.612-1.674-23.583c6.057-6.98,16.612-7.723,23.582-1.674
		l152.771,132.592c3.265,2.906,8.645,5.004,14.359,4.971c5.706,0.017,10.995-2.024,14.44-5.028l0.074-0.065l152.615-132.469
		c6.971-6.049,17.526-5.306,23.583,1.674c6.048,6.97,5.306,17.525-1.674,23.583l-152.77,132.599
		C282.211,284.929,269.322,289.419,256,289.436z M456.948,404.771c-5.992,7.028-16.547,7.861-23.566,1.869l-99.54-84.92
		c-7.028-5.992-7.861-16.546-1.869-23.566c5.991-7.029,16.546-7.861,23.566-1.87l99.54,84.92
		C462.107,387.195,462.94,397.75,456.948,404.771z"></path>
    </g>
  </symbol>
  <symbol fill="none" xmlns="http://www.w3.org/2000/svg" viewBox="0 0 24 24" id="phone">
    <path d="M16.5562 12.9062L16.1007 13.359C16.1007 13.359 15.0181 14.4355 12.0631 11.4972C9.10812 8.55901 10.1907 7.48257 10.1907 7.48257L10.4775 7.19738C11.1841 6.49484 11.2507 5.36691 10.6342 4.54348L9.37326 2.85908C8.61028 1.83992 7.13596 1.70529 6.26145 2.57483L4.69185 4.13552C4.25823 4.56668 3.96765 5.12559 4.00289 5.74561C4.09304 7.33182 4.81071 10.7447 8.81536 14.7266C13.0621 18.9492 17.0468 19.117 18.6763 18.9651C19.1917 18.9171 19.6399 18.6546 20.0011 18.2954L21.4217 16.883C22.3806 15.9295 22.1102 14.2949 20.8833 13.628L18.9728 12.5894C18.1672 12.1515 17.1858 12.2801 16.5562 12.9062Z" fill="#1C274C"></path>
  </symbol>
  <symbol fill="#000000" version="1.1" id="apple" xmlns="http://www.w3.org/2000/svg" xmlns:xlink="http://www.w3.org/1999/xlink" xml:space="preserve" viewBox="0 0 31.769 31.769">
    <g>
      <path d="M26.42,7.542c-1.413-0.911-3.054-0.847-4.874-0.594c2.812-1.479,3.521-3.493,3.628-4.887
		c0.033-0.431-0.132-0.853-0.449-1.146c-0.316-0.294-0.75-0.426-1.177-0.36c-3.872,0.599-5.438,3.331-6.039,5.015
		c-0.282-0.868-0.694-1.74-1.287-2.542c-1.064-1.442-2.52-2.438-4.342-2.972c-0.391-0.114-0.811-0.053-1.152,0.168
		c-0.342,0.221-0.571,0.579-0.627,0.982l-0.017,0.119c-0.095,0.686,0.325,1.335,0.99,1.531c1.196,0.353,2.115,0.976,2.792,1.889
		c0.588,0.794,0.924,1.721,1.109,2.61c-2.56-0.542-4.411-2.142-8.197-0.353C2.951,8.809,0.002,13.54,2.216,20.724
		c1.781,5.79,6.019,9.738,8.252,11.045h11.566c2.576-1.542,6.77-5.061,7.871-11.409C31.125,13.325,29.508,9.532,26.42,7.542z
		 M9.626,11.817c-0.349,0.191-3.283,1.929-2.213,5.728c0.219,0.775-0.232,1.58-1.007,1.8c-0.133,0.035-0.267,0.053-0.397,0.053
		c-0.638,0-1.222-0.42-1.402-1.063c-1.39-4.933,1.781-8.103,3.651-9.088c0.709-0.376,1.592-0.102,1.969,0.608
		C10.603,10.562,10.333,11.439,9.626,11.817z"></path>
    </g>
  </symbol>
  <symbol id="address" version="1.1" xmlns="http://www.w3.org/2000/svg" xmlnsCc="http://creativecommons.org/ns#" xmlnsDc="http://purl.org/dc/elements/1.1/" xmlnsInkscape="http://www.inkscape.org/namespaces/inkscape" xmlnsRdf="http://www.w3.org/1999/02/22-rdf-syntax-ns#" xmlnsSodipodi="http://sodipodi.sourceforge.net/DTD/sodipodi-0.dtd" xmlnsSvg="http://www.w3.org/2000/svg" viewBox="0 0 8.4666669 8.4666669">
    <defs id="defs2"></defs>
    <g id="layer1" transform="translate(0,-288.53332)">
      <path d="m 15.996094,0.99609375 c -6.0632836,0 -10.9980445,4.93673065 -10.9980471,11.00000025 -3.8e-6,10.668737 10.3789061,18.779297 10.3789061,18.779297 0.364612,0.290384 0.881482,0.290384 1.246094,0 0,0 10.380882,-8.11056 10.380859,-18.779297 C 27.003893,5.9328244 22.059377,0.99609375 15.996094,0.99609375 Z m 0,6.00195315 c 2.749573,0 5.00585,2.2484784 5.005859,4.9980471 C 21.001971,14.7457 18.745685,17 15.996094,17 c -2.749591,0 -4.998064,-2.2543 -4.998047,-5.003906 9e-6,-2.7495687 2.248474,-4.9980471 4.998047,-4.9980471 z" id="path929" transform="matrix(0.26458333,0,0,0.26458333,0,288.53332)"></path>
    </g>
  </symbol>
  <symbol version="1.1" xmlns="http://www.w3.org/2000/svg" xmlns:xlink="http://www.w3.org/1999/xlink" viewBox="0 0 24 24" id="license">
    <title>school_fill</title>
    <g id="页面-1" stroke="none" stroke-width="1" fill="none" fill-rule="evenodd">
      <g id="Building" transform="translate(-432.000000, -48.000000)">
        <g id="school_fill" transform="translate(432.000000, 48.000000)">
          <path d="M24,0 L24,24 L0,24 L0,0 L24,0 Z M12.5934901,23.257841 L12.5819402,23.2595131 L12.5108777,23.2950439 L12.4918791,23.2987469 L12.4918791,23.2987469 L12.4767152,23.2950439 L12.4056548,23.2595131 C12.3958229,23.2563662 12.3870493,23.2590235 12.3821421,23.2649074 L12.3780323,23.275831 L12.360941,23.7031097 L12.3658947,23.7234994 L12.3769048,23.7357139 L12.4804777,23.8096931 L12.4953491,23.8136134 L12.4953491,23.8136134 L12.5071152,23.8096931 L12.6106902,23.7357139 L12.6232938,23.7196733 L12.6232938,23.7196733 L12.6266527,23.7031097 L12.609561,23.275831 C12.6075724,23.2657013 12.6010112,23.2592993 12.5934901,23.257841 L12.5934901,23.257841 Z M12.8583906,23.1452862 L12.8445485,23.1473072 L12.6598443,23.2396597 L12.6498822,23.2499052 L12.6498822,23.2499052 L12.6471943,23.2611114 L12.6650943,23.6906389 L12.6699349,23.7034178 L12.6699349,23.7034178 L12.678386,23.7104931 L12.8793402,23.8032389 C12.8914285,23.8068999 12.9022333,23.8029875 12.9078286,23.7952264 L12.9118235,23.7811639 L12.8776777,23.1665331 C12.8752882,23.1545897 12.8674102,23.1470016 12.8583906,23.1452862 L12.8583906,23.1452862 Z M12.1430473,23.1473072 C12.1332178,23.1423925 12.1221763,23.1452606 12.1156365,23.1525954 L12.1099173,23.1665331 L12.0757714,23.7811639 C12.0751323,23.7926639 12.0828099,23.8018602 12.0926481,23.8045676 L12.108256,23.8032389 L12.3092106,23.7104931 L12.3186497,23.7024347 L12.3186497,23.7024347 L12.3225043,23.6906389 L12.340401,23.2611114 L12.337245,23.2485176 L12.337245,23.2485176 L12.3277531,23.2396597 L12.1430473,23.1473072 Z" id="MingCute" fill-rule="nonzero"></path>
          <path d="M11.063,2.46883 C11.5716714,2.06187429 12.2791765,2.03280602 12.8162528,2.3816252 L12.937,2.46883 L17.2494,5.91871 C17.67636,6.260305 17.942778,6.7599067 17.991792,7.29932962 L18,7.48045 L18,18.9999 L19,18.9999 L19,10.4999 C19,10.2543889 19.1769086,10.0502644 19.4101355,10.0079345 L19.5,9.99988 L20,9.99988 C21.0543909,9.99988 21.9181678,10.8157482 21.9945144,11.8506337 L22,11.9999 L22,19.8999 C22,20.4669 21.5709778,20.9337222 21.0198548,20.9934452 L20.9,20.9999 L3.1,20.9999 C2.53299067,20.9999 2.06617653,20.5708778 2.00645469,20.0197548 L2,19.8999 L2,11.9999 C2,10.9455091 2.81587733,10.081714 3.85073759,10.0053657 L4,9.99988 L4.5,9.99988 C4.74545778,9.99988 4.9496079,10.1767254 4.99194425,10.4100085 L5,10.4999 L5,18.9999 L6,18.9999 L6,7.48045 C6,6.933637 6.2237058,6.4135135 6.61430643,6.03826498 L6.75061,5.91871 L11.063,2.46883 Z M12,8.99988 C10.8954,8.99988 10,9.89531 10,10.9999 C10,12.1044 10.8954,12.9999 12,12.9999 C13.1046,12.9999 14,12.1044 14,10.9999 C14,9.89531 13.1046,8.99988 12,8.99988 Z" id="形状" fill="#09244B"></path>
        </g>
      </g>
    </g>
  </symbol>
</svg>