<svg width="0" height="0" class="hidden">
  <symbol fill="none" xmlns="http://www.w3.org/2000/svg" viewBox="0 0 24 24" id="house">
    <path d="M2 22H22" stroke="#292D32" stroke-width="1.5" stroke-miterlimit="10" stroke-linecap="round" stroke-linejoin="round"></path>
    <path d="M2.94995 22L2.99995 9.96999C2.99995 9.35999 3.28995 8.78004 3.76995 8.40004L10.77 2.95003C11.49 2.39003 12.4999 2.39003 13.2299 2.95003L20.23 8.39003C20.72 8.77003 21 9.34999 21 9.96999V22" stroke="#292D32" stroke-width="1.5" stroke-miterlimit="10" stroke-linejoin="round"></path>
    <path d="M13 17H11C10.17 17 9.5 17.67 9.5 18.5V22H14.5V18.5C14.5 17.67 13.83 17 13 17Z" stroke="#292D32" stroke-width="1.5" stroke-miterlimit="10" stroke-linejoin="round"></path>
    <path d="M9.5 13.75H7.5C6.95 13.75 6.5 13.3 6.5 12.75V11.25C6.5 10.7 6.95 10.25 7.5 10.25H9.5C10.05 10.25 10.5 10.7 10.5 11.25V12.75C10.5 13.3 10.05 13.75 9.5 13.75Z" stroke="#292D32" stroke-width="1.5" stroke-miterlimit="10" stroke-linejoin="round"></path>
    <path d="M16.5 13.75H14.5C13.95 13.75 13.5 13.3 13.5 12.75V11.25C13.5 10.7 13.95 10.25 14.5 10.25H16.5C17.05 10.25 17.5 10.7 17.5 11.25V12.75C17.5 13.3 17.05 13.75 16.5 13.75Z" stroke="#292D32" stroke-width="1.5" stroke-miterlimit="10" stroke-linejoin="round"></path>
    <path d="M19.0001 7L18.9701 4H14.5701" stroke="#292D32" stroke-width="1.5" stroke-miterlimit="10" stroke-linecap="round" stroke-linejoin="round"></path>
  </symbol>
  <symbol fill="none" xmlns="http://www.w3.org/2000/svg" viewBox="0 0 24 24" id="academic">
    <path d="M3.09155 6.63659L9.78267 3.49965C11.2037 2.83345 12.7961 2.83345 14.2171 3.49965L20.9083 6.63664C22.3638 7.31899 22.3638 9.68105 20.9083 10.3634L14.2172 13.5003C12.7962 14.1665 11.2038 14.1665 9.78275 13.5003L4.99995 11.2581" stroke="#1C274D" stroke-width="1.5" stroke-linecap="round"></path>
    <path d="M2.5 15V12.1376C2.5 10.8584 2.5 10.2188 2.83032 9.71781C3.16064 9.21687 3.74853 8.96492 4.92432 8.461L6 8" stroke="#1C274D" stroke-width="1.5" stroke-linecap="round" stroke-linejoin="round"></path>
    <path d="M12 21C10.204 21 7.8537 19.8787 6.38533 19.0656C5.5035 18.5772 5 17.6334 5 16.6254V11.5M19 11.5V16.6254C19 17.6334 18.4965 18.5772 17.6147 19.0656C17.0843 19.3593 16.4388 19.6932 15.7459 20" stroke="#1C274D" stroke-width="1.5" stroke-linecap="round"></path>
  </symbol>
  <symbol fill="none" xmlns="http://www.w3.org/2000/svg" viewBox="0 0 24 24" id="shield">
    <path d="M3 10.4167C3 7.21907 3 5.62028 3.37752 5.08241C3.75503 4.54454 5.25832 4.02996 8.26491 3.00079L8.83772 2.80472C10.405 2.26824 11.1886 2 12 2C12.8114 2 13.595 2.26824 15.1623 2.80472L15.7351 3.00079C18.7417 4.02996 20.245 4.54454 20.6225 5.08241C21 5.62028 21 7.21907 21 10.4167C21 10.8996 21 11.4234 21 11.9914C21 17.6294 16.761 20.3655 14.1014 21.5273C13.38 21.8424 13.0193 22 12 22C10.9807 22 10.62 21.8424 9.89856 21.5273C7.23896 20.3655 3 17.6294 3 11.9914C3 11.4234 3 10.8996 3 10.4167Z" stroke="#1C274C" stroke-width="1.5"></path>
    <path d="M16 11.55L12.6 9C12.2444 8.73333 11.7556 8.73333 11.4 9L8 11.55M14 14.05L12 12.55L10 14.05" stroke="#1C274C" stroke-width="1.5" stroke-linecap="round" stroke-linejoin="round"></path>
  </symbol>
  <symbol fill="#000000" version="1.1" id="kids" xmlns="http://www.w3.org/2000/svg" xmlns:xlink="http://www.w3.org/1999/xlink" xml:space="preserve" viewBox="0 0 24.432 24.432">
    <g>
      <g>
        <path d="M6.42,9.301c1.771,0,3.205-1.435,3.205-3.208c0-1.105,0.389-2.117-0.465-2.691C8.648,3.053,6.4,2.888,5.736,2.888
			c-0.79,0-1.817,0.644-2.376,1.119C2.665,4.594,3.213,5.111,3.213,6.092C3.213,7.866,4.646,9.301,6.42,9.301z M4.186,5.779
			c0.589-0.107,0.989,0.087,0.989,0.087l0.984-0.479c0,0-0.501,0.724-0.051,0.479C7.11,5.53,8.231,5.67,8.801,5.782
			c0.02,0.125,0.038,0.253,0.038,0.386c0,1.32-1.048,2.387-2.349,2.387c-1.294,0-2.343-1.067-2.343-2.387
			C4.147,6.035,4.165,5.907,4.186,5.779z"></path>
        <path d="M22.066,5.643c-0.015-0.183-0.03-0.365-0.07-0.541c-0.127-1.124-1.133-3.408-4.02-3.34
			c-2.488,0.059-3.031,1.932-3.162,3.072c-0.088,0.28-0.145,0.573-0.164,0.878c-3.236,0.565-2.88,3.849-0.904,3.905
			c-0.188-1.715,0.63-2.745,0.945-3.076c0.291,1.771,1.82,3.132,3.672,3.132c1.756,0,3.222-1.223,3.619-2.858
			c0.303,0.534,0.812,1.628,0.688,2.803C25.783,9.591,24.251,6.032,22.066,5.643z M18.363,8.617c-1.455,0-2.639-1.172-2.672-2.621
			c0.531-0.193,0.925-1.113,0.925-1.113s0.315,0.108,0.315,1.147c0.551,0.192,1.508-1.614,1.508-1.614v1.423
			c0.607,0.166,2.521-0.054,2.521-0.054l0.071,0.06c0.001,0.03,0.009,0.061,0.009,0.092C21.042,7.415,19.842,8.617,18.363,8.617z"></path>
        <polygon points="19.143,9.769 17.568,9.769 16.253,9.769 12.402,14.409 8.675,9.827 4.438,9.827 0,14.699 0.93,15.658 
			4.107,12.947 4.107,18.205 4.744,18.205 4.744,22.202 4.339,22.202 4.339,22.671 6.184,22.671 6.184,22.202 6.184,18.205 
			6.875,18.205 6.875,22.202 6.875,22.671 8.716,22.671 8.716,22.202 8.312,22.202 8.312,18.205 9.085,18.205 9.085,13.046 
			11.625,15.654 12.663,15.398 13.238,15.542 16.115,12.249 16.279,13.554 13.607,18.146 16.689,18.146 16.689,22.144 
			16.284,22.144 16.284,22.609 18.127,22.609 18.127,22.144 18.129,22.144 18.129,18.146 18.818,18.146 18.818,22.144 
			18.818,22.609 20.662,22.609 20.662,22.144 20.257,22.144 20.257,18.146 22.646,18.146 20.292,13.554 20.421,11.948 22.67,14.962 
			24.16,14.591 20.594,9.769 		"></polygon>
      </g>
    </g>
  </symbol>
  <symbol xmlns="http://www.w3.org/2000/svg" viewBox="0 0 1024 1024" id="apple">
    <path fill="#000000" d="M599.872 203.776a189.44 189.44 0 0 1 64.384-4.672l2.624.128c31.168 1.024 51.2 4.096 79.488 16.32 37.632 16.128 74.496 45.056 111.488 89.344 96.384 115.264 82.752 372.8-34.752 521.728-7.68 9.728-32 41.6-30.72 39.936a426.624 426.624 0 0 1-30.08 35.776c-31.232 32.576-65.28 49.216-110.08 50.048-31.36.64-53.568-5.312-84.288-18.752l-6.528-2.88c-20.992-9.216-30.592-11.904-47.296-11.904-18.112 0-28.608 2.88-51.136 12.672l-6.464 2.816c-28.416 12.224-48.32 18.048-76.16 19.2-74.112 2.752-116.928-38.08-180.672-132.16-96.64-142.08-132.608-349.312-55.04-486.4 46.272-81.92 129.92-133.632 220.672-135.04 32.832-.576 60.288 6.848 99.648 22.72 27.136 10.88 34.752 13.76 37.376 14.272 16.256-20.16 27.776-36.992 34.56-50.24 13.568-26.304 27.2-59.968 40.704-100.8a32 32 0 1 1 60.8 20.224c-12.608 37.888-25.408 70.4-38.528 97.664zm-51.52 78.08c-14.528 17.792-31.808 37.376-51.904 58.816a32 32 0 1 1-46.72-43.776l12.288-13.248c-28.032-11.2-61.248-26.688-95.68-26.112-70.4 1.088-135.296 41.6-171.648 105.792C121.6 492.608 176 684.16 247.296 788.992c34.816 51.328 76.352 108.992 130.944 106.944 52.48-2.112 72.32-34.688 135.872-34.688 63.552 0 81.28 34.688 136.96 33.536 56.448-1.088 75.776-39.04 126.848-103.872 107.904-136.768 107.904-362.752 35.776-449.088-72.192-86.272-124.672-84.096-151.68-85.12-41.472-4.288-81.6 12.544-113.664 25.152z"></path>
  </symbol>
</svg>